<svg xmlns="http://www.w3.org/2000/svg" viewBox="0 0 16000 16000"><rect width="16000" height="16000" fill="white"/><defs><path id="e" fill="#FF0000" d="M64 320C64 178.6 178.6 64 320 64C461.4 64 576 178.6 576 320C576 461.4 461.4 576 320 576C178.6 576 64 461.4 64 320zM320 432C344.1 432 365.4 443.8 378.5 462C386.2 472.8 401.2 475.2 412 467.5C422.8 459.8 425.2 444.8 417.5 434C395.8 403.8 360.2 384 320 384C279.8 384 244.3 403.8 222.5 434C214.8 444.8 217.2 459.8 228 467.5C238.8 475.2 253.8 472.8 261.5 462C274.6 443.8 295.9 432 320 432zM240 336C257.7 336 272 321.7 272 304L272 303.7L281.7 306.9C292.2 310.4 303.5 304.7 307 294.3C310.5 283.9 304.8 272.5 294.4 269L198.4 237C187.9 233.5 176.6 239.2 173.1 249.6C169.6 260 175.3 271.4 185.7 274.9L214.6 284.5C210.5 289.9 208 296.6 208 303.9C208 321.6 222.3 335.9 240 335.9zM432 304C432 296.7 429.6 290 425.4 284.6L454.3 275C464.8 271.5 470.4 260.2 466.9 249.7C463.4 239.2 452.1 233.6 441.6 237.1L345.6 269.1C335.1 272.6 329.5 283.9 333 294.4C336.5 304.9 347.8 310.5 358.3 307L368 303.8L368 304.1C368 321.8 382.3 336.1 400 336.1C417.7 336.1 432 321.8 432 304.1z"/></defs><use href="#e" transform="translate(11737.32,2004.26) scale(3.062) translate(-320,-320)"/><use href="#e" transform="translate(6957.47,10552.60) scale(2.506) translate(-320,-320)"/><use href="#e" transform="translate(12009.29,4169.83) scale(2.577) translate(-320,-320)"/><use href="#e" transform="translate(9512.55,14018.83) scale(2.449) translate(-320,-320)"/><use href="#e" transform="translate(4911.59,1594.21) scale(3.472) translate(-320,-320)"/><use href="#e" transform="translate(14155.08,5963.76) scale(2.816) translate(-320,-320)"/><use href="#e" transform="translate(14034.82,2738.20) scale(2.481) translate(-320,-320)"/><use href="#e" transform="translate(9198.02,4531.88) scale(3.317) translate(-320,-320)"/><use href="#e" transform="translate(7272.13,12761.47) scale(3.262) translate(-320,-320)"/><use href="#e" transform="translate(6320.67,6723.13) scale(2.015) translate(-320,-320)"/><use href="#e" transform="translate(10689.18,6088.56) scale(2.379) translate(-320,-320)"/><use href="#e" transform="translate(1265.79,9022.06) scale(3.433) translate(-320,-320)"/><use href="#e" transform="translate(8321.99,7079.03) scale(3.476) translate(-320,-320)"/><use href="#e" transform="translate(9616.22,2780.85) scale(2.271) translate(-320,-320)"/><use href="#e" transform="translate(14069.20,9971.20) scale(3.393) translate(-320,-320)"/><use href="#e" transform="translate(1575.13,3757.81) scale(3.116) translate(-320,-320)"/><use href="#e" transform="translate(3476.88,13051.71) scale(3.217) translate(-320,-320)"/><use href="#e" transform="translate(11818.40,12896.75) scale(2.327) translate(-320,-320)"/><use href="#e" transform="translate(3286.32,10892.80) scale(2.639) translate(-320,-320)"/><use href="#e" transform="translate(9611.16,994.32) scale(2.922) translate(-320,-320)"/><use href="#e" transform="translate(9802.60,11745.07) scale(2.056) translate(-320,-320)"/><use href="#e" transform="translate(5590.85,14014.92) scale(2.406) translate(-320,-320)"/><use href="#e" transform="translate(11234.99,10084.45) scale(2.576) translate(-320,-320)"/><use href="#e" transform="translate(13743.57,12523.41) scale(3.469) translate(-320,-320)"/><use href="#e" transform="translate(11204.94,14891.57) scale(3.088) translate(-320,-320)"/><use href="#e" transform="translate(11584.29,8185.22) scale(3.229) translate(-320,-320)"/><use href="#e" transform="translate(6850.03,948.70) scale(2.744) translate(-320,-320)"/><use href="#e" transform="translate(4334.59,8339.51) scale(2.523) translate(-320,-320)"/><use href="#e" transform="translate(4321.08,5763.06) scale(2.267) translate(-320,-320)"/><use href="#e" transform="translate(6659.09,2985.94) scale(3.288) translate(-320,-320)"/><use href="#e" transform="translate(7186.46,8604.78) scale(2.115) translate(-320,-320)"/><use href="#e" transform="translate(1645.50,11998.39) scale(2.888) translate(-320,-320)"/><use href="#e" transform="translate(7129.76,14924.16) scale(2.291) translate(-320,-320)"/><use href="#e" transform="translate(7078.53,5108.97) scale(3.330) translate(-320,-320)"/><use href="#e" transform="translate(14953.52,944.01) scale(2.148) translate(-320,-320)"/><use href="#e" transform="translate(1064.83,15170.27) scale(2.061) translate(-320,-320)"/><use href="#e" transform="translate(1368.80,5973.25) scale(3.280) translate(-320,-320)"/><use href="#e" transform="translate(8703.33,9775.12) scale(2.290) translate(-320,-320)"/><use href="#e" transform="translate(13909.58,14666.98) scale(2.137) translate(-320,-320)"/><use href="#e" transform="translate(5502.40,9644.10) scale(2.672) translate(-320,-320)"/><use href="#e" transform="translate(3210.72,4638.58) scale(2.048) translate(-320,-320)"/><use href="#e" transform="translate(14599.60,4398.11) scale(2.234) translate(-320,-320)"/><use href="#e" transform="translate(2977.51,1912.98) scale(2.072) translate(-320,-320)"/><use href="#e" transform="translate(13884.51,7865.41) scale(2.831) translate(-320,-320)"/><use href="#e" transform="translate(992.58,809.85) scale(2.106) translate(-320,-320)"/><use href="#e" transform="translate(4051.47,15255.95) scale(2.129) translate(-320,-320)"/><use href="#e" transform="translate(5351.52,12171.81) scale(2.852) translate(-320,-320)"/><use href="#e" transform="translate(9840.08,8813.15) scale(2.195) translate(-320,-320)"/><use href="#e" transform="translate(12311.16,6189.24) scale(2.594) translate(-320,-320)"/><use href="#e" transform="translate(13098.15,862.55) scale(2.302) translate(-320,-320)"/><use href="#e" transform="translate(4676.39,4369.88) scale(2.212) translate(-320,-320)"/><use href="#e" transform="translate(1664.79,1992.13) scale(2.004) translate(-320,-320)"/><use href="#e" transform="translate(2830.63,7061.39) scale(2.264) translate(-320,-320)"/><use href="#e" transform="translate(2465.02,14450.28) scale(2.161) translate(-320,-320)"/><use href="#e" transform="translate(12468.72,11296.41) scale(2.032) translate(-320,-320)"/><use href="#e" transform="translate(711.91,13513.98) scale(2.023) translate(-320,-320)"/><use href="#e" transform="translate(3097.38,9348.80) scale(2.070) translate(-320,-320)"/><use href="#e" transform="translate(3274.40,3288.11) scale(2.162) translate(-320,-320)"/><use href="#e" transform="translate(15308.49,14662.77) scale(2.054) translate(-320,-320)"/><use href="#e" transform="translate(8388.63,11351.00) scale(2.292) translate(-320,-320)"/><use href="#e" transform="translate(5761.53,7928.26) scale(2.053) translate(-320,-320)"/><use href="#e" transform="translate(8263.92,2079.94) scale(2.467) translate(-320,-320)"/><use href="#e" transform="translate(15194.52,11427.22) scale(2.028) translate(-320,-320)"/><use href="#e" transform="translate(15308.49,8692.71) scale(2.036) translate(-320,-320)"/><use href="#e" transform="translate(8562.62,15156.65) scale(2.063) translate(-320,-320)"/><use href="#e" transform="translate(11196.21,11625.14) scale(2.003) translate(-320,-320)"/><use href="#e" transform="translate(15275.57,7116.09) scale(2.099) translate(-320,-320)"/><use href="#e" transform="translate(2431.27,670.57) scale(2.076) translate(-320,-320)"/><use href="#e" transform="translate(10071.15,7356.85) scale(2.008) translate(-320,-320)"/><use href="#e" transform="translate(490.98,7360.43) scale(1.471) translate(-320,-320)"/><use href="#e" transform="translate(15149.45,13338.39) scale(1.486) translate(-320,-320)"/><use href="#e" transform="translate(12803.97,14472.56) scale(1.303) translate(-320,-320)"/><use href="#e" transform="translate(15210.79,2283.93) scale(1.056) translate(-320,-320)"/><use href="#e" transform="translate(10585.57,3387.40) scale(1.187) translate(-320,-320)"/><use href="#e" transform="translate(8781.88,12595.19) scale(1.478) translate(-320,-320)"/><use href="#e" transform="translate(5578.99,5261.34) scale(1.377) translate(-320,-320)"/><use href="#e" transform="translate(15538.40,3633.49) scale(1.336) translate(-320,-320)"/><use href="#e" transform="translate(4647.43,10745.27) scale(1.628) translate(-320,-320)"/><use href="#e" transform="translate(2077.05,10296.96) scale(1.251) translate(-320,-320)"/><use href="#e" transform="translate(1273.53,10705.58) scale(1.315) translate(-320,-320)"/><use href="#e" transform="translate(15480.58,5293.48) scale(1.120) translate(-320,-320)"/><use href="#e" transform="translate(5918.43,4325.05) scale(1.035) translate(-320,-320)"/><use href="#e" transform="translate(2614.26,15491.28) scale(1.012) translate(-320,-320)"/><use href="#e" transform="translate(13365.65,15613.74) scale(1.193) translate(-320,-320)"/><use href="#e" transform="translate(5984.81,15292.54) scale(1.329) translate(-320,-320)"/><use href="#e" transform="translate(12461.54,10052.32) scale(1.098) translate(-320,-320)"/><use href="#e" transform="translate(12488.16,15545.26) scale(1.280) translate(-320,-320)"/><use href="#e" transform="translate(12788.75,2929.87) scale(1.181) translate(-320,-320)"/><use href="#e" transform="translate(395.09,10931.92) scale(1.016) translate(-320,-320)"/><use href="#e" transform="translate(8056.70,3456.90) scale(1.158) translate(-320,-320)"/><use href="#e" transform="translate(1851.10,13404.35) scale(1.470) translate(-320,-320)"/><use href="#e" transform="translate(456.09,2711.55) scale(1.318) translate(-320,-320)"/><use href="#e" transform="translate(9819.43,15246.12) scale(1.023) translate(-320,-320)"/><use href="#e" transform="translate(4787.83,3288.21) scale(1.085) translate(-320,-320)"/><use href="#e" transform="translate(11056.41,564.53) scale(1.324) translate(-320,-320)"/><use href="#e" transform="translate(9715.67,10626.01) scale(1.396) translate(-320,-320)"/><use href="#e" transform="translate(10433.43,13061.60) scale(1.220) translate(-320,-320)"/><use href="#e" transform="translate(5079.56,15380.17) scale(1.045) translate(-320,-320)"/><use href="#e" transform="translate(684.69,1907.09) scale(1.058) translate(-320,-320)"/><use href="#e" transform="translate(514.29,4571.89) scale(1.038) translate(-320,-320)"/><use href="#e" transform="translate(2772.47,8327.18) scale(1.159) translate(-320,-320)"/><use href="#e" transform="translate(15485.70,6075.73) scale(1.042) translate(-320,-320)"/><use href="#e" transform="translate(4895.45,6939.38) scale(1.706) translate(-320,-320)"/><use href="#e" transform="translate(13135.84,4615.39) scale(1.075) translate(-320,-320)"/><use href="#e" transform="translate(8154.55,13980.07) scale(1.366) translate(-320,-320)"/><use href="#e" transform="translate(14744.78,15606.42) scale(1.044) translate(-320,-320)"/><use href="#e" transform="translate(4195.68,9839.22) scale(1.130) translate(-320,-320)"/><use href="#e" transform="translate(10966.66,4914.79) scale(1.142) translate(-320,-320)"/><use href="#e" transform="translate(15600.14,10189.44) scale(1.078) translate(-320,-320)"/><use href="#e" transform="translate(2972.60,5763.67) scale(1.505) translate(-320,-320)"/><use href="#e" transform="translate(368.34,11885.24) scale(1.023) translate(-320,-320)"/><use href="#e" transform="translate(3850.99,572.53) scale(1.011) translate(-320,-320)"/><use href="#e" transform="translate(437.35,10207.23) scale(1.013) translate(-320,-320)"/><use href="#e" transform="translate(13213.10,1928.35) scale(1.031) translate(-320,-320)"/><use href="#e" transform="translate(8332.25,380.69) scale(1.139) translate(-320,-320)"/><use href="#e" transform="translate(1500.98,7438.60) scale(1.003) translate(-320,-320)"/><use href="#e" transform="translate(12884.63,8726.80) scale(1.147) translate(-320,-320)"/><use href="#e" transform="translate(13389.08,3852.56) scale(1.133) translate(-320,-320)"/><use href="#e" transform="translate(14028.09,1531.78) scale(1.264) translate(-320,-320)"/><use href="#e" transform="translate(14057.91,348.73) scale(1.073) translate(-320,-320)"/><use href="#e" transform="translate(11899.52,611.80) scale(1.121) translate(-320,-320)"/><use href="#e" transform="translate(10034.90,9852.94) scale(1.065) translate(-320,-320)"/><use href="#e" transform="translate(4396.64,14086.66) scale(1.019) translate(-320,-320)"/><use href="#e" transform="translate(8605.65,8685.89) scale(1.126) translate(-320,-320)"/><use href="#e" transform="translate(4026.85,7175.60) scale(1.008) translate(-320,-320)"/><use href="#e" transform="translate(15645.28,12398.71) scale(1.018) translate(-320,-320)"/><use href="#e" transform="translate(15662.88,4602.14) scale(1.049) translate(-320,-320)"/><use href="#e" transform="translate(13109.43,5303.22) scale(1.045) translate(-320,-320)"/><use href="#e" transform="translate(5802.17,10830.52) scale(1.036) translate(-320,-320)"/><use href="#e" transform="translate(12437.38,9358.73) scale(1.006) translate(-320,-320)"/><use href="#e" transform="translate(9485.26,6112.50) scale(1.199) translate(-320,-320)"/><use href="#e" transform="translate(10423.65,1954.49) scale(1.001) translate(-320,-320)"/><use href="#e" transform="translate(9711.14,12844.25) scale(1.095) translate(-320,-320)"/><use href="#e" transform="translate(12542.98,13745.39) scale(1.074) translate(-320,-320)"/><use href="#e" transform="translate(10757.60,4236.59) scale(1.064) translate(-320,-320)"/><use href="#e" transform="translate(5584.04,6033.75) scale(1.026) translate(-320,-320)"/><use href="#e" transform="translate(4086.95,11783.69) scale(1.011) translate(-320,-320)"/><use href="#e" transform="translate(11567.20,5276.96) scale(1.031) translate(-320,-320)"/><use href="#e" transform="translate(6905.17,7584.83) scale(1.008) translate(-320,-320)"/><use href="#e" transform="translate(374.12,12594.76) scale(1.034) translate(-320,-320)"/><use href="#e" transform="translate(2168.77,7895.75) scale(1.053) translate(-320,-320)"/><use href="#e" transform="translate(7659.43,9551.72) scale(1.042) translate(-320,-320)"/><use href="#e" transform="translate(12724.56,7426.55) scale(1.039) translate(-320,-320)"/><use href="#e" transform="translate(4224.16,2864.60) scale(1.008) translate(-320,-320)"/><use href="#e" transform="translate(15631.28,2826.95) scale(1.057) translate(-320,-320)"/><use href="#e" transform="translate(5717.83,375.53) scale(1.012) translate(-320,-320)"/><use href="#e" transform="translate(15430.70,15677.34) scale(1.001) translate(-320,-320)"/><use href="#e" transform="translate(5447.64,3657.37) scale(1.015) translate(-320,-320)"/><use href="#e" transform="translate(6505.94,11612.92) scale(1.016) translate(-320,-320)"/><use href="#e" transform="translate(1961.42,15630.32) scale(1.026) translate(-320,-320)"/><use href="#e" transform="translate(10594.64,13853.03) scale(0.456) translate(-320,-320)"/><use href="#e" transform="translate(15660.19,1600.90) scale(0.674) translate(-320,-320)"/><use href="#e" transform="translate(327.26,14415.51) scale(0.849) translate(-320,-320)"/><use href="#e" transform="translate(9118.69,8251.06) scale(0.624) translate(-320,-320)"/><use href="#e" transform="translate(3622.52,6398.03) scale(0.647) translate(-320,-320)"/><use href="#e" transform="translate(248.23,5278.48) scale(0.409) translate(-320,-320)"/><use href="#e" transform="translate(3394.07,7870.74) scale(0.425) translate(-320,-320)"/><use href="#e" transform="translate(8532.43,13296.86) scale(0.688) translate(-320,-320)"/><use href="#e" transform="translate(12242.70,215.40) scale(0.509) translate(-320,-320)"/><use href="#e" transform="translate(211.25,6356.38) scale(0.452) translate(-320,-320)"/><use href="#e" transform="translate(3427.91,14371.04) scale(0.545) translate(-320,-320)"/><use href="#e" transform="translate(9871.03,5664.73) scale(0.417) translate(-320,-320)"/><use href="#e" transform="translate(13753.32,4851.97) scale(0.513) translate(-320,-320)"/><use href="#e" transform="translate(14142.45,15622.18) scale(0.649) translate(-320,-320)"/><use href="#e" transform="translate(8501.76,931.62) scale(0.452) translate(-320,-320)"/><use href="#e" transform="translate(203.42,4148.91) scale(0.565) translate(-320,-320)"/><use href="#e" transform="translate(9162.50,15792.60) scale(0.551) translate(-320,-320)"/><use href="#e" transform="translate(13138.58,7067.75) scale(0.570) translate(-320,-320)"/><use href="#e" transform="translate(4853.84,14749.56) scale(0.576) translate(-320,-320)"/><use href="#e" transform="translate(11227.70,3588.74) scale(0.466) translate(-320,-320)"/><use href="#e" transform="translate(299.12,284.71) scale(0.499) translate(-320,-320)"/><use href="#e" transform="translate(7982.43,9117.52) scale(0.630) translate(-320,-320)"/><use href="#e" transform="translate(10935.63,6961.84) scale(0.441) translate(-320,-320)"/><use href="#e" transform="translate(14522.37,13830.05) scale(0.840) translate(-320,-320)"/><use href="#e" transform="translate(3481.19,197.48) scale(0.493) translate(-320,-320)"/><use href="#e" transform="translate(354.41,8093.07) scale(0.417) translate(-320,-320)"/><use href="#e" transform="translate(8272.93,5609.47) scale(0.514) translate(-320,-320)"/><use href="#e" transform="translate(2386.95,4873.99) scale(0.526) translate(-320,-320)"/><use href="#e" transform="translate(3598.11,1257.62) scale(0.650) translate(-320,-320)"/><use href="#e" transform="translate(4597.83,267.80) scale(0.519) translate(-320,-320)"/><use href="#e" transform="translate(6509.32,9378.96) scale(0.547) translate(-320,-320)"/><use href="#e" transform="translate(6557.41,14084.26) scale(0.612) translate(-320,-320)"/><use href="#e" transform="translate(11179.06,3214.72) scale(0.582) translate(-320,-320)"/><use href="#e" transform="translate(10637.21,1418.85) scale(0.437) translate(-320,-320)"/><use href="#e" transform="translate(2716.80,11903.04) scale(0.456) translate(-320,-320)"/><use href="#e" transform="translate(453.98,3413.53) scale(0.483) translate(-320,-320)"/><use href="#e" transform="translate(7800.44,15830.92) scale(0.508) translate(-320,-320)"/><use href="#e" transform="translate(15827.37,12932.91) scale(0.414) translate(-320,-320)"/><use href="#e" transform="translate(7897.03,1222.60) scale(0.405) translate(-320,-320)"/><use href="#e" transform="translate(6996.88,9536.98) scale(0.664) translate(-320,-320)"/><use href="#e" transform="translate(7229.42,15819.29) scale(0.411) translate(-320,-320)"/><use href="#e" transform="translate(2476.92,5348.91) scale(0.500) translate(-320,-320)"/><use href="#e" transform="translate(11074.37,13498.31) scale(0.647) translate(-320,-320)"/><use href="#e" transform="translate(4856.98,13256.02) scale(0.793) translate(-320,-320)"/><use href="#e" transform="translate(3231.29,14816.25) scale(0.436) translate(-320,-320)"/><use href="#e" transform="translate(168.93,1813.52) scale(0.453) translate(-320,-320)"/><use href="#e" transform="translate(3770.99,2326.87) scale(0.450) translate(-320,-320)"/><use href="#e" transform="translate(3908.29,14364.19) scale(0.680) translate(-320,-320)"/><use href="#e" transform="translate(3347.81,11877.82) scale(0.417) translate(-320,-320)"/><use href="#e" transform="translate(1329.01,14324.32) scale(0.624) translate(-320,-320)"/><use href="#e" transform="translate(13296.00,13925.32) scale(0.560) translate(-320,-320)"/><use href="#e" transform="translate(8639.28,3379.53) scale(0.611) translate(-320,-320)"/><use href="#e" transform="translate(13137.00,3304.51) scale(0.404) translate(-320,-320)"/><use href="#e" transform="translate(3364.82,8468.51) scale(0.529) translate(-320,-320)"/><use href="#e" transform="translate(3180.91,15629.48) scale(0.495) translate(-320,-320)"/><use href="#e" transform="translate(7803.11,493.42) scale(0.496) translate(-320,-320)"/><use href="#e" transform="translate(2417.69,2870.21) scale(0.454) translate(-320,-320)"/><use href="#e" transform="translate(10526.47,315.09) scale(0.453) translate(-320,-320)"/><use href="#e" transform="translate(7770.49,4060.30) scale(0.581) translate(-320,-320)"/><use href="#e" transform="translate(417.59,15832.84) scale(0.491) translate(-320,-320)"/><use href="#e" transform="translate(13063.54,15004.54) scale(0.484) translate(-320,-320)"/><use href="#e" transform="translate(1911.70,4885.99) scale(0.486) translate(-320,-320)"/><use href="#e" transform="translate(3207.70,15166.62) scale(0.474) translate(-320,-320)"/><use href="#e" transform="translate(7917.26,10496.44) scale(0.433) translate(-320,-320)"/><use href="#e" transform="translate(10772.89,9188.95) scale(0.527) translate(-320,-320)"/><use href="#e" transform="translate(14858.28,3533.21) scale(0.507) translate(-320,-320)"/><use href="#e" transform="translate(7596.56,3711.92) scale(0.410) translate(-320,-320)"/><use href="#e" transform="translate(6178.72,137.58) scale(0.408) translate(-320,-320)"/><use href="#e" transform="translate(7316.53,1925.78) scale(0.513) translate(-320,-320)"/><use href="#e" transform="translate(4941.70,251.66) scale(0.523) translate(-320,-320)"/><use href="#e" transform="translate(348.43,6740.84) scale(0.430) translate(-320,-320)"/><use href="#e" transform="translate(15180.83,10595.19) scale(0.560) translate(-320,-320)"/><use href="#e" transform="translate(15104.39,12673.68) scale(0.512) translate(-320,-320)"/><use href="#e" transform="translate(3906.12,9336.10) scale(0.439) translate(-320,-320)"/><use href="#e" transform="translate(6646.38,15770.71) scale(0.431) translate(-320,-320)"/><use href="#e" transform="translate(5468.01,15768.53) scale(0.612) translate(-320,-320)"/><use href="#e" transform="translate(10724.63,12523.13) scale(0.538) translate(-320,-320)"/><use href="#e" transform="translate(10323.16,10923.40) scale(0.416) translate(-320,-320)"/><use href="#e" transform="translate(15782.81,2078.97) scale(0.448) translate(-320,-320)"/><use href="#e" transform="translate(10247.08,15691.33) scale(0.671) translate(-320,-320)"/><use href="#e" transform="translate(10595.90,2597.50) scale(0.787) translate(-320,-320)"/><use href="#e" transform="translate(15591.64,9447.82) scale(0.476) translate(-320,-320)"/><use href="#e" transform="translate(15113.24,2809.19) scale(0.548) translate(-320,-320)"/><use href="#e" transform="translate(12212.16,14348.13) scale(0.446) translate(-320,-320)"/><use href="#e" transform="translate(10301.33,12391.09) scale(0.413) translate(-320,-320)"/><use href="#e" transform="translate(4502.72,9375.62) scale(0.492) translate(-320,-320)"/><use href="#e" transform="translate(15796.16,13428.66) scale(0.527) translate(-320,-320)"/><use href="#e" transform="translate(12840.32,10443.73) scale(0.449) translate(-320,-320)"/><use href="#e" transform="translate(15756.37,415.68) scale(0.693) translate(-320,-320)"/><use href="#e" transform="translate(5509.25,4622.89) scale(0.436) translate(-320,-320)"/><use href="#e" transform="translate(15802.10,15321.73) scale(0.459) translate(-320,-320)"/><use href="#e" transform="translate(9352.71,7916.76) scale(0.482) translate(-320,-320)"/><use href="#e" transform="translate(7284.40,14007.66) scale(0.518) translate(-320,-320)"/><use href="#e" transform="translate(2105.58,10901.44) scale(0.482) translate(-320,-320)"/><use href="#e" transform="translate(3074.74,7916.24) scale(0.405) translate(-320,-320)"/><use href="#e" transform="translate(1958.26,15157.04) scale(0.443) translate(-320,-320)"/><use href="#e" transform="translate(8725.00,5706.04) scale(0.547) translate(-320,-320)"/><use href="#e" transform="translate(5903.71,8719.89) scale(0.435) translate(-320,-320)"/><use href="#e" transform="translate(13405.49,6873.95) scale(0.417) translate(-320,-320)"/><use href="#e" transform="translate(2713.06,3907.40) scale(0.449) translate(-320,-320)"/><use href="#e" transform="translate(13486.27,11141.02) scale(0.419) translate(-320,-320)"/><use href="#e" transform="translate(6316.81,8866.19) scale(0.631) translate(-320,-320)"/><use href="#e" transform="translate(7154.77,6419.11) scale(0.479) translate(-320,-320)"/><use href="#e" transform="translate(10408.09,5156.64) scale(0.625) translate(-320,-320)"/><use href="#e" transform="translate(10627.33,15856.16) scale(0.424) translate(-320,-320)"/><use href="#e" transform="translate(6914.29,13978.97) scale(0.429) translate(-320,-320)"/><use href="#e" transform="translate(9583.79,15765.57) scale(0.687) translate(-320,-320)"/><use href="#e" transform="translate(298.29,1392.37) scale(0.643) translate(-320,-320)"/><use href="#e" transform="translate(11875.31,15826.94) scale(0.432) translate(-320,-320)"/><use href="#e" transform="translate(15079.77,3239.99) scale(0.471) translate(-320,-320)"/><use href="#e" transform="translate(12453.99,12120.32) scale(0.457) translate(-320,-320)"/><use href="#e" transform="translate(8667.25,3017.63) scale(0.451) translate(-320,-320)"/><use href="#e" transform="translate(230.72,15405.35) scale(0.590) translate(-320,-320)"/><use href="#e" transform="translate(14230.21,11288.50) scale(0.488) translate(-320,-320)"/><use href="#e" transform="translate(9035.32,5817.86) scale(0.404) translate(-320,-320)"/><use href="#e" transform="translate(4233.78,3516.47) scale(0.528) translate(-320,-320)"/><use href="#e" transform="translate(5929.41,13076.64) scale(0.441) translate(-320,-320)"/><use href="#e" transform="translate(15794.98,1050.62) scale(0.477) translate(-320,-320)"/><use href="#e" transform="translate(262.51,11439.96) scale(0.401) translate(-320,-320)"/><use href="#e" transform="translate(7994.01,776.29) scale(0.476) translate(-320,-320)"/><use href="#e" transform="translate(6364.62,8521.58) scale(0.400) translate(-320,-320)"/><use href="#e" transform="translate(908.02,14355.68) scale(0.507) translate(-320,-320)"/><use href="#e" transform="translate(5317.78,2875.48) scale(0.652) translate(-320,-320)"/><use href="#e" transform="translate(11811.71,13873.97) scale(0.550) translate(-320,-320)"/><use href="#e" transform="translate(11230.17,7002.30) scale(0.400) translate(-320,-320)"/><use href="#e" transform="translate(15822.99,7875.26) scale(0.414) translate(-320,-320)"/><use href="#e" transform="translate(9075.57,10627.63) scale(0.515) translate(-320,-320)"/><use href="#e" transform="translate(14555.49,1793.71) scale(0.444) translate(-320,-320)"/><use href="#e" transform="translate(3380.73,478.45) scale(0.430) translate(-320,-320)"/><use href="#e" transform="translate(201.30,3661.99) scale(0.527) translate(-320,-320)"/><use href="#e" transform="translate(13383.57,8812.18) scale(0.419) translate(-320,-320)"/><use href="#e" transform="translate(14047.55,850.82) scale(0.466) translate(-320,-320)"/><use href="#e" transform="translate(1035.48,2666.86) scale(0.497) translate(-320,-320)"/><use href="#e" transform="translate(10289.94,3974.25) scale(0.401) translate(-320,-320)"/><use href="#e" transform="translate(15200.68,1737.95) scale(0.420) translate(-320,-320)"/><use href="#e" transform="translate(12596.56,14983.91) scale(0.403) translate(-320,-320)"/><use href="#e" transform="translate(10286.88,8103.34) scale(0.406) translate(-320,-320)"/><use href="#e" transform="translate(3173.23,1004.62) scale(0.459) translate(-320,-320)"/><use href="#e" transform="translate(13785.32,11238.19) scale(0.536) translate(-320,-320)"/><use href="#e" transform="translate(10448.41,9444.22) scale(0.495) translate(-320,-320)"/><use href="#e" transform="translate(10587.03,11079.65) scale(0.467) translate(-320,-320)"/><use href="#e" transform="translate(12114.36,14049.61) scale(0.443) translate(-320,-320)"/><use href="#e" transform="translate(11477.73,6706.06) scale(0.462) translate(-320,-320)"/><use href="#e" transform="translate(14985.89,7949.87) scale(0.481) translate(-320,-320)"/><use href="#e" transform="translate(7732.97,167.43) scale(0.438) translate(-320,-320)"/><use href="#e" transform="translate(14821.79,1963.39) scale(0.487) translate(-320,-320)"/><use href="#e" transform="translate(11626.99,3226.81) scale(0.521) translate(-320,-320)"/><use href="#e" transform="translate(10940.12,2858.20) scale(0.483) translate(-320,-320)"/><use href="#e" transform="translate(10961.57,3789.37) scale(0.466) translate(-320,-320)"/><use href="#e" transform="translate(9705.10,6630.18) scale(0.408) translate(-320,-320)"/><use href="#e" transform="translate(1512.18,14007.41) scale(0.431) translate(-320,-320)"/><use href="#e" transform="translate(12661.96,4929.45) scale(0.459) translate(-320,-320)"/><use href="#e" transform="translate(10369.32,13671.75) scale(0.435) translate(-320,-320)"/><use href="#e" transform="translate(6093.86,11311.30) scale(0.545) translate(-320,-320)"/><use href="#e" transform="translate(13051.08,2423.21) scale(0.595) translate(-320,-320)"/><use href="#e" transform="translate(14021.54,3684.73) scale(0.411) translate(-320,-320)"/><use href="#e" transform="translate(15510.32,7930.61) scale(0.401) translate(-320,-320)"/><use href="#e" transform="translate(1825.76,10774.31) scale(0.400) translate(-320,-320)"/><use href="#e" transform="translate(8219.87,8337.59) scale(0.423) translate(-320,-320)"/><use href="#e" transform="translate(702.72,11472.70) scale(0.468) translate(-320,-320)"/><use href="#e" transform="translate(13614.71,4346.73) scale(0.410) translate(-320,-320)"/><use href="#e" transform="translate(13993.37,13814.99) scale(0.482) translate(-320,-320)"/><use href="#e" transform="translate(10446.36,4635.05) scale(0.502) translate(-320,-320)"/><use href="#e" transform="translate(4498.11,11435.64) scale(0.505) translate(-320,-320)"/><use href="#e" transform="translate(1027.43,7772.17) scale(0.533) translate(-320,-320)"/><use href="#e" transform="translate(10161.10,3717.67) scale(0.483) translate(-320,-320)"/><use href="#e" transform="translate(3097.78,185.91) scale(0.410) translate(-320,-320)"/><use href="#e" transform="translate(1708.52,265.64) scale(0.417) translate(-320,-320)"/><use href="#e" transform="translate(15282.80,9669.34) scale(0.416) translate(-320,-320)"/><use href="#e" transform="translate(2544.72,9983.46) scale(0.442) translate(-320,-320)"/><use href="#e" transform="translate(12854.22,8170.71) scale(0.424) translate(-320,-320)"/><use href="#e" transform="translate(15672.52,13904.39) scale(0.506) translate(-320,-320)"/><use href="#e" transform="translate(157.36,8405.99) scale(0.485) translate(-320,-320)"/><use href="#e" transform="translate(11587.04,175.17) scale(0.515) translate(-320,-320)"/><use href="#e" transform="translate(274.05,14848.21) scale(0.490) translate(-320,-320)"/><use href="#e" transform="translate(11880.22,9335.24) scale(0.401) translate(-320,-320)"/><use href="#e" transform="translate(3691.01,6756.61) scale(0.406) translate(-320,-320)"/><use href="#e" transform="translate(2014.17,7403.30) scale(0.405) translate(-320,-320)"/><use href="#e" transform="translate(12599.69,3413.58) scale(0.411) translate(-320,-320)"/><use href="#e" transform="translate(10501.47,12149.00) scale(0.458) translate(-320,-320)"/><use href="#e" transform="translate(12663.34,13277.07) scale(0.413) translate(-320,-320)"/><use href="#e" transform="translate(5475.38,14958.61) scale(0.502) translate(-320,-320)"/><use href="#e" transform="translate(6427.52,14405.27) scale(0.421) translate(-320,-320)"/><use href="#e" transform="translate(6559.01,8032.39) scale(0.436) translate(-320,-320)"/><use href="#e" transform="translate(9299.66,11076.11) scale(0.497) translate(-320,-320)"/><use href="#e" transform="translate(10903.90,1187.26) scale(0.523) translate(-320,-320)"/><use href="#e" transform="translate(12270.76,3047.75) scale(0.404) translate(-320,-320)"/><use href="#e" transform="translate(9379.31,15102.57) scale(0.417) translate(-320,-320)"/><use href="#e" transform="translate(2369.36,2525.91) scale(0.573) translate(-320,-320)"/><use href="#e" transform="translate(3537.22,5372.60) scale(0.402) translate(-320,-320)"/><use href="#e" transform="translate(12891.27,3546.29) scale(0.413) translate(-320,-320)"/><use href="#e" transform="translate(190.65,2185.46) scale(0.516) translate(-320,-320)"/><use href="#e" transform="translate(6075.53,15849.89) scale(0.432) translate(-320,-320)"/><use href="#e" transform="translate(12947.36,9418.74) scale(0.414) translate(-320,-320)"/><use href="#e" transform="translate(7305.95,11503.41) scale(0.533) translate(-320,-320)"/><use href="#e" transform="translate(3855.32,3967.93) scale(0.588) translate(-320,-320)"/><use href="#e" transform="translate(7812.12,15493.60) scale(0.461) translate(-320,-320)"/><use href="#e" transform="translate(14998.16,12227.58) scale(0.494) translate(-320,-320)"/><use href="#e" transform="translate(13632.77,13764.27) scale(0.421) translate(-320,-320)"/><use href="#e" transform="translate(1885.12,7051.29) scale(0.409) translate(-320,-320)"/><use href="#e" transform="translate(15762.82,10705.48) scale(0.487) translate(-320,-320)"/><use href="#e" transform="translate(3630.40,7562.00) scale(0.512) translate(-320,-320)"/><use href="#e" transform="translate(5127.62,6236.22) scale(0.435) translate(-320,-320)"/><use href="#e" transform="translate(11642.04,10961.50) scale(0.440) translate(-320,-320)"/><use href="#e" transform="translate(9015.51,13193.76) scale(0.472) translate(-320,-320)"/><use href="#e" transform="translate(4220.00,213.43) scale(0.508) translate(-320,-320)"/><use href="#e" transform="translate(4652.73,13704.53) scale(0.413) translate(-320,-320)"/><use href="#e" transform="translate(3960.19,4969.34) scale(0.401) translate(-320,-320)"/><use href="#e" transform="translate(15447.68,199.53) scale(0.463) translate(-320,-320)"/><use href="#e" transform="translate(12404.44,5196.82) scale(0.517) translate(-320,-320)"/><use href="#e" transform="translate(12070.47,5226.21) scale(0.454) translate(-320,-320)"/><use href="#e" transform="translate(4118.25,6663.61) scale(0.496) translate(-320,-320)"/><use href="#e" transform="translate(6246.82,14732.83) scale(0.447) translate(-320,-320)"/><use href="#e" transform="translate(8217.89,1045.43) scale(0.436) translate(-320,-320)"/><use href="#e" transform="translate(5802.44,15858.67) scale(0.417) translate(-320,-320)"/><use href="#e" transform="translate(14610.08,15079.87) scale(0.403) translate(-320,-320)"/><use href="#e" transform="translate(996.65,4766.90) scale(0.406) translate(-320,-320)"/><use href="#e" transform="translate(831.48,11151.37) scale(0.481) translate(-320,-320)"/><use href="#e" transform="translate(12063.46,10614.15) scale(0.447) translate(-320,-320)"/><use href="#e" transform="translate(5601.28,7129.30) scale(0.460) translate(-320,-320)"/><use href="#e" transform="translate(2273.87,1479.58) scale(0.402) translate(-320,-320)"/><use href="#e" transform="translate(1760.28,1118.05) scale(0.438) translate(-320,-320)"/><use href="#e" transform="translate(12286.80,7175.71) scale(0.416) translate(-320,-320)"/><use href="#e" transform="translate(13203.43,10922.19) scale(0.432) translate(-320,-320)"/><use href="#e" transform="translate(4734.03,15857.14) scale(0.411) translate(-320,-320)"/><use href="#e" transform="translate(6088.99,5869.22) scale(0.486) translate(-320,-320)"/><use href="#e" transform="translate(178.06,6019.96) scale(0.413) translate(-320,-320)"/><use href="#e" transform="translate(8823.71,231.09) scale(0.428) translate(-320,-320)"/><use href="#e" transform="translate(204.36,5555.78) scale(0.464) translate(-320,-320)"/><use href="#e" transform="translate(2347.95,9760.22) scale(0.462) translate(-320,-320)"/><use href="#e" transform="translate(12829.75,9677.83) scale(0.404) translate(-320,-320)"/><use href="#e" transform="translate(249.87,9769.90) scale(0.410) translate(-320,-320)"/><use href="#e" transform="translate(8089.00,8696.24) scale(0.442) translate(-320,-320)"/><use href="#e" transform="translate(10084.16,5349.87) scale(0.440) translate(-320,-320)"/><use href="#e" transform="translate(15120.63,139.67) scale(0.409) translate(-320,-320)"/><use href="#e" transform="translate(10068.29,14821.45) scale(0.437) translate(-320,-320)"/><use href="#e" transform="translate(10389.82,10602.22) scale(0.411) translate(-320,-320)"/><use href="#e" transform="translate(11950.86,3195.45) scale(0.452) translate(-320,-320)"/><use href="#e" transform="translate(13264.76,6580.46) scale(0.419) translate(-320,-320)"/><use href="#e" transform="translate(14948.32,5286.41) scale(0.431) translate(-320,-320)"/><use href="#e" transform="translate(7841.26,10141.05) scale(0.411) translate(-320,-320)"/><use href="#e" transform="translate(5197.01,5759.91) scale(0.447) translate(-320,-320)"/><use href="#e" transform="translate(1613.08,14542.52) scale(0.444) translate(-320,-320)"/><use href="#e" transform="translate(3761.29,2615.47) scale(0.418) translate(-320,-320)"/><use href="#e" transform="translate(3415.04,787.26) scale(0.457) translate(-320,-320)"/><use href="#e" transform="translate(254.59,4994.75) scale(0.443) translate(-320,-320)"/><use href="#e" transform="translate(3005.83,11904.40) scale(0.430) translate(-320,-320)"/><use href="#e" transform="translate(11969.13,12003.81) scale(0.419) translate(-320,-320)"/><use href="#e" transform="translate(8101.43,4004.06) scale(0.407) translate(-320,-320)"/><use href="#e" transform="translate(150.36,3312.17) scale(0.448) translate(-320,-320)"/><use href="#e" transform="translate(9316.43,15448.96) scale(0.461) translate(-320,-320)"/><use href="#e" transform="translate(4712.97,14451.16) scale(0.447) translate(-320,-320)"/><use href="#e" transform="translate(11405.43,13772.93) scale(0.428) translate(-320,-320)"/><use href="#e" transform="translate(5319.64,11097.90) scale(0.499) translate(-320,-320)"/><use href="#e" transform="translate(6983.07,11575.26) scale(0.453) translate(-320,-320)"/><use href="#e" transform="translate(7570.17,14114.92) scale(0.416) translate(-320,-320)"/><use href="#e" transform="translate(12326.28,14795.07) scale(0.425) translate(-320,-320)"/><use href="#e" transform="translate(15848.93,5775.20) scale(0.410) translate(-320,-320)"/><use href="#e" transform="translate(6429.03,13620.64) scale(0.427) translate(-320,-320)"/><use href="#e" transform="translate(5328.37,10747.58) scale(0.414) translate(-320,-320)"/><use href="#e" transform="translate(7057.93,7145.03) scale(0.430) translate(-320,-320)"/><use href="#e" transform="translate(2066.91,2704.68) scale(0.430) translate(-320,-320)"/><use href="#e" transform="translate(2244.83,12922.61) scale(0.461) translate(-320,-320)"/><use href="#e" transform="translate(896.77,2347.27) scale(0.412) translate(-320,-320)"/><use href="#e" transform="translate(11697.08,6994.61) scale(0.412) translate(-320,-320)"/><use href="#e" transform="translate(6233.00,1826.89) scale(0.532) translate(-320,-320)"/><use href="#e" transform="translate(155.45,597.24) scale(0.442) translate(-320,-320)"/><use href="#e" transform="translate(197.02,1008.94) scale(0.439) translate(-320,-320)"/><use href="#e" transform="translate(9573.59,9719.75) scale(0.418) translate(-320,-320)"/><use href="#e" transform="translate(14553.23,202.26) scale(0.482) translate(-320,-320)"/><use href="#e" transform="translate(14506.46,8823.57) scale(0.416) translate(-320,-320)"/><use href="#e" transform="translate(5170.04,14873.05) scale(0.414) translate(-320,-320)"/><use href="#e" transform="translate(13068.61,13629.39) scale(0.412) translate(-320,-320)"/><use href="#e" transform="translate(1090.32,7135.37) scale(0.445) translate(-320,-320)"/><use href="#e" transform="translate(6209.24,13297.23) scale(0.453) translate(-320,-320)"/><use href="#e" transform="translate(3682.38,9914.59) scale(0.420) translate(-320,-320)"/><use href="#e" transform="translate(15550.15,12860.40) scale(0.441) translate(-320,-320)"/><use href="#e" transform="translate(6654.90,9665.89) scale(0.402) translate(-320,-320)"/><use href="#e" transform="translate(15802.20,9722.93) scale(0.400) translate(-320,-320)"/><use href="#e" transform="translate(10249.56,10323.45) scale(0.476) translate(-320,-320)"/><use href="#e" transform="translate(14937.16,13968.21) scale(0.403) translate(-320,-320)"/><use href="#e" transform="translate(8114.79,15839.61) scale(0.472) translate(-320,-320)"/><use href="#e" transform="translate(7850.61,2961.99) scale(0.431) translate(-320,-320)"/><use href="#e" transform="translate(3625.85,11890.60) scale(0.433) translate(-320,-320)"/><use href="#e" transform="translate(564.58,5084.10) scale(0.433) translate(-320,-320)"/><use href="#e" transform="translate(1512.80,15846.21) scale(0.403) translate(-320,-320)"/><use href="#e" transform="translate(6356.71,15778.32) scale(0.455) translate(-320,-320)"/><use href="#e" transform="translate(617.52,7957.48) scale(0.420) translate(-320,-320)"/><use href="#e" transform="translate(11038.58,12462.96) scale(0.410) translate(-320,-320)"/><use href="#e" transform="translate(15851.39,6496.05) scale(0.423) translate(-320,-320)"/><use href="#e" transform="translate(5286.83,8619.43) scale(0.541) translate(-320,-320)"/><use href="#e" transform="translate(3404.00,15838.68) scale(0.401) translate(-320,-320)"/><use href="#e" transform="translate(13255.61,11274.81) scale(0.414) translate(-320,-320)"/><use href="#e" transform="translate(2231.08,5158.36) scale(0.411) translate(-320,-320)"/><use href="#e" transform="translate(13846.57,15841.68) scale(0.409) translate(-320,-320)"/><use href="#e" transform="translate(8629.30,13648.89) scale(0.428) translate(-320,-320)"/><use href="#e" transform="translate(14444.88,6975.08) scale(0.416) translate(-320,-320)"/><use href="#e" transform="translate(5527.20,6501.75) scale(0.421) translate(-320,-320)"/><use href="#e" transform="translate(2512.91,8795.36) scale(0.441) translate(-320,-320)"/><use href="#e" transform="translate(913.10,10253.37) scale(0.440) translate(-320,-320)"/><use href="#e" transform="translate(5265.00,257.18) scale(0.428) translate(-320,-320)"/><use href="#e" transform="translate(15865.84,2398.00) scale(0.410) translate(-320,-320)"/><use href="#e" transform="translate(7904.05,14490.50) scale(0.401) translate(-320,-320)"/><use href="#e" transform="translate(4170.85,11310.69) scale(0.418) translate(-320,-320)"/><use href="#e" transform="translate(4338.70,487.78) scale(0.405) translate(-320,-320)"/><use href="#e" transform="translate(2331.56,11096.69) scale(0.403) translate(-320,-320)"/><use href="#e" transform="translate(8335.59,2999.01) scale(0.409) translate(-320,-320)"/><use href="#e" transform="translate(8001.13,4318.11) scale(0.440) translate(-320,-320)"/><use href="#e" transform="translate(7484.65,15722.13) scale(0.414) translate(-320,-320)"/><use href="#e" transform="translate(7958.30,8288.77) scale(0.401) translate(-320,-320)"/><use href="#e" transform="translate(15814.95,4149.20) scale(0.438) translate(-320,-320)"/><use href="#e" transform="translate(9534.93,10035.61) scale(0.412) translate(-320,-320)"/><use href="#e" transform="translate(10893.39,7235.65) scale(0.421) translate(-320,-320)"/><use href="#e" transform="translate(10680.38,13548.31) scale(0.448) translate(-320,-320)"/><use href="#e" transform="translate(10901.52,13795.89) scale(0.405) translate(-320,-320)"/><use href="#e" transform="translate(8636.25,14328.43) scale(0.451) translate(-320,-320)"/><use href="#e" transform="translate(15836.42,11890.80) scale(0.430) translate(-320,-320)"/><use href="#e" transform="translate(2685.47,2699.97) scale(0.422) translate(-320,-320)"/><use href="#e" transform="translate(12615.63,136.86) scale(0.418) translate(-320,-320)"/><use href="#e" transform="translate(4139.06,10337.91) scale(0.400) translate(-320,-320)"/><use href="#e" transform="translate(5030.43,15848.13) scale(0.405) translate(-320,-320)"/><use href="#e" transform="translate(1330.69,13005.04) scale(0.403) translate(-320,-320)"/><use href="#e" transform="translate(13543.81,5074.40) scale(0.418) translate(-320,-320)"/><use href="#e" transform="translate(5487.73,4135.34) scale(0.425) translate(-320,-320)"/><use href="#e" transform="translate(2947.07,15853.10) scale(0.408) translate(-320,-320)"/><use href="#e" transform="translate(10915.98,12832.61) scale(0.402) translate(-320,-320)"/><use href="#e" transform="translate(9078.38,12056.62) scale(0.401) translate(-320,-320)"/><use href="#e" transform="translate(9244.97,12993.42) scale(0.430) translate(-320,-320)"/><use href="#e" transform="translate(15868.99,9376.99) scale(0.405) translate(-320,-320)"/><use href="#e" transform="translate(8071.71,5846.65) scale(0.453) translate(-320,-320)"/><use href="#e" transform="translate(834.59,12734.84) scale(0.429) translate(-320,-320)"/><use href="#e" transform="translate(442.91,3865.40) scale(0.414) translate(-320,-320)"/><use href="#e" transform="translate(6340.21,4127.20) scale(0.414) translate(-320,-320)"/><use href="#e" transform="translate(6938.61,15797.12) scale(0.418) translate(-320,-320)"/><use href="#e" transform="translate(4996.05,5153.64) scale(0.426) translate(-320,-320)"/><use href="#e" transform="translate(3288.42,6310.51) scale(0.404) translate(-320,-320)"/><use href="#e" transform="translate(10292.60,138.94) scale(0.429) translate(-320,-320)"/><use href="#e" transform="translate(3246.58,8120.25) scale(0.405) translate(-320,-320)"/><use href="#e" transform="translate(14613.86,14231.76) scale(0.418) translate(-320,-320)"/><use href="#e" transform="translate(9423.42,12447.47) scale(0.401) translate(-320,-320)"/></svg>